<?xml version="1.0" encoding="utf-8"?>
<!-- Generator: Adobe Illustrator 20.0.0, SVG Export Plug-In . SVG Version: 6.00 Build 0)  -->
<svg version="1.1" id="Layer_1" xmlns="http://www.w3.org/2000/svg" xmlns:xlink="http://www.w3.org/1999/xlink" x="0px" y="0px"
	 width="206px" height="48px" viewBox="0 0 206 48" enable-background="new 0 0 206 48" xml:space="preserve">
<g id="Logo">
	<g>
		<path fill-rule="evenodd" clip-rule="evenodd" fill="#F15F77" d="M13.7,37.5c-1.6,0-3.3-0.3-5.1-1c-8.3-3.1-9.1-9.2-8.3-13.7
			C2.1,12.5,13.9,0,18.6,0c0.3,0,0.5,0,0.8,0.1c3.6,1.3,6.3,16.3,4.7,25.8C22.7,33.5,19.1,37.5,13.7,37.5 M18.6,1.5
			c-3.3,0-15,11.2-16.8,21.5c-1,5.8,1.4,9.8,7.3,12c1.7,0.6,3.2,0.9,4.6,0.9c5.8,0,8-5.6,8.8-10.3C24.3,15.5,21,2.4,18.8,1.6
			C18.8,1.5,18.7,1.5,18.6,1.5"/>
		<path fill-rule="evenodd" clip-rule="evenodd" fill="#F15F77" d="M18.2,41.8L18.2,41.8c-4.7,0-8.3-1.2-10.7-3.7
			c-2.2-2.2-3.2-5.5-3.1-9.5c0.3-9.2,6-11.2,10.8-11.2c8.6,0,20.5,6.6,24.8,11.1c1.3,1.3,1.9,2.4,1.8,3.3
			C41.6,35.9,27.8,41.8,18.2,41.8 M15.1,18.9c-5.9,0-9,3.3-9.2,9.7c-0.1,3.7,0.8,6.5,2.7,8.4c2.1,2.1,5.3,3.2,9.6,3.2
			c10.5,0,22-6.4,22-8.5c0-0.3-0.3-1.1-1.4-2.2C34.7,25.2,23.4,18.9,15.1,18.9"/>
		<path fill-rule="evenodd" clip-rule="evenodd" fill="#F15F77" d="M15.9,38.2L15.9,38.2c-3.5,0-6.6-1.9-9.3-5.7
			c-3-4.3-3.5-8.3-1.7-11.9C8.8,13.1,22.7,9.2,31.3,9.2c3.2,0,5.2,0.5,6,1.6c1.6,2.3-1.5,8.8-2.5,10.7
			C28.4,33.8,20.6,38.2,15.9,38.2 M31.3,10.7c-4.2,0-9.6,1-14.1,2.7c-3.8,1.4-8.8,3.9-10.9,7.9c-1.6,3.1-1.1,6.5,1.6,10.3
			c2.4,3.3,5.1,5,8,5h0c6.4,0,13.4-8,17.5-15.9c2.6-5.1,3.1-8.4,2.6-9.1C35.7,11.3,34.5,10.7,31.3,10.7"/>
	</g>
	<g>
		<rect x="203.4" y="11.9" fill-rule="evenodd" clip-rule="evenodd" fill="#F15F77" width="2.6" height="27.1"/>
		<path fill-rule="evenodd" clip-rule="evenodd" fill="#F15F77" d="M199.8,13.7c0,0.5-0.2,1-0.6,1.3c-0.4,0.3-0.8,0.5-1.3,0.5
			c-0.5,0-0.9-0.2-1.3-0.5c-0.4-0.3-0.6-0.8-0.6-1.3c0-0.5,0.2-1,0.6-1.3c0.4-0.3,0.8-0.5,1.3-0.5c0.5,0,0.9,0.2,1.3,0.5
			C199.6,12.8,199.8,13.2,199.8,13.7z M196.7,38.9h2.6V21.1h-2.6V38.9z"/>
		<path fill-rule="evenodd" clip-rule="evenodd" fill="#F15F77" d="M190.4,27.4c0-1.5-0.4-2.7-1.2-3.5c-0.8-0.8-2-1.1-3.6-1.1
			c-1.1,0-2.1,0.2-3,0.6c-0.9,0.4-1.7,0.9-2.3,1.5l-1.5-1.7c0.7-0.7,1.7-1.4,2.9-1.8c1.2-0.5,2.6-0.7,4.1-0.7c1,0,1.9,0.1,2.7,0.4
			c0.8,0.3,1.6,0.7,2.2,1.2c0.6,0.5,1.1,1.2,1.5,2c0.4,0.8,0.5,1.8,0.5,2.9v7.8c0,0.7,0,1.4,0.1,2.1c0,0.7,0.1,1.4,0.2,1.9h-2.3
			c-0.1-0.4-0.1-0.9-0.2-1.4c-0.1-0.5-0.1-1-0.1-1.5h-0.1c-0.8,1.2-1.7,2.1-2.8,2.6c-1,0.5-2.3,0.8-3.7,0.8c-0.7,0-1.4-0.1-2.1-0.3
			c-0.7-0.2-1.4-0.5-2-0.9c-0.6-0.4-1.1-1-1.5-1.7c-0.4-0.7-0.6-1.5-0.6-2.5c0-1.4,0.3-2.5,1.1-3.3c0.7-0.8,1.6-1.4,2.8-1.8
			c1.2-0.4,2.5-0.7,4-0.8c1.5-0.1,3.1-0.2,4.7-0.2V27.4z M189.6,30c-1.1,0-2.1,0-3.2,0.1c-1.1,0.1-2.1,0.3-2.9,0.5
			c-0.9,0.3-1.6,0.7-2.2,1.2c-0.6,0.5-0.8,1.2-0.8,2c0,0.6,0.1,1.2,0.4,1.6c0.2,0.4,0.6,0.8,1,1.1c0.4,0.3,0.9,0.5,1.4,0.6
			c0.5,0.1,1,0.2,1.5,0.2c0.9,0,1.7-0.2,2.4-0.5c0.7-0.3,1.3-0.7,1.8-1.3c0.5-0.5,0.9-1.2,1.1-1.9c0.3-0.7,0.4-1.5,0.4-2.3V30H189.6
			z"/>
		<path fill-rule="evenodd" clip-rule="evenodd" fill="#F15F77" d="M177,23.2h-5v10.4c0,0.7,0.1,1.2,0.2,1.6c0.1,0.4,0.3,0.8,0.6,1
			c0.2,0.2,0.5,0.4,0.9,0.5c0.3,0.1,0.7,0.1,1.1,0.1c0.4,0,0.7,0,1.1-0.2c0.4-0.1,0.8-0.2,1.1-0.4l0.1,2.3c-0.5,0.2-0.9,0.3-1.4,0.4
			c-0.5,0.1-1,0.1-1.6,0.1c-0.5,0-1-0.1-1.5-0.2c-0.5-0.1-1-0.4-1.5-0.7c-0.5-0.4-0.8-0.8-1.1-1.5c-0.3-0.6-0.4-1.4-0.4-2.4V23.2
			h-3.7v-2.2h3.7v-5h2.6v5h5V23.2z"/>
		<path fill-rule="evenodd" clip-rule="evenodd" fill="#F15F77" d="M165.3,29.5V30c0,0.2,0,0.4,0,0.6h-14.8c0,0.9,0.2,1.7,0.5,2.5
			c0.3,0.8,0.8,1.5,1.4,2.1c0.6,0.6,1.3,1,2.1,1.4c0.8,0.3,1.6,0.5,2.6,0.5c1.3,0,2.5-0.3,3.5-0.9c1-0.6,1.7-1.3,2.2-2.2l1.9,1.5
			c-1.1,1.4-2.2,2.3-3.5,2.9c-1.3,0.6-2.7,0.9-4.1,0.9c-1.3,0-2.6-0.2-3.7-0.7c-1.1-0.5-2.1-1.1-2.9-2c-0.8-0.8-1.5-1.8-1.9-3
			c-0.5-1.1-0.7-2.4-0.7-3.7c0-1.3,0.2-2.6,0.7-3.7c0.5-1.1,1.1-2.1,1.9-3c0.8-0.8,1.8-1.5,2.9-2c1.1-0.5,2.3-0.7,3.6-0.7
			c1.4,0,2.6,0.2,3.7,0.7c1.1,0.5,2,1.1,2.7,1.9c0.7,0.8,1.3,1.7,1.6,2.8C165.1,27.1,165.3,28.2,165.3,29.5z M162.6,28.6
			c-0.1-1.7-0.6-3.1-1.6-4.2c-1-1.1-2.4-1.7-4.3-1.7c-0.9,0-1.7,0.2-2.4,0.5c-0.7,0.3-1.4,0.8-1.9,1.3c-0.6,0.5-1,1.2-1.3,1.9
			c-0.3,0.7-0.5,1.4-0.6,2.2H162.6z"/>
		<path fill-rule="evenodd" clip-rule="evenodd" fill="#F15F77" d="M132.3,38.9h-2.8V11.9h7.9c1.3,0,2.6,0.1,3.7,0.4
			c1.1,0.3,2.1,0.7,2.9,1.2c0.8,0.6,1.5,1.3,1.9,2.2c0.5,0.9,0.7,2,0.7,3.4c0,1-0.2,1.9-0.5,2.7c-0.4,0.8-0.8,1.5-1.5,2.1
			c-0.6,0.6-1.3,1.1-2.2,1.4c-0.8,0.4-1.8,0.6-2.8,0.7l7.9,12.9h-3.4l-7.5-12.6h-4.6V38.9z M132.3,23.9h4.8c2.2,0,3.9-0.4,5.1-1.2
			c1.2-0.8,1.8-2,1.8-3.6c0-0.9-0.2-1.6-0.5-2.3c-0.3-0.6-0.8-1.1-1.4-1.5c-0.6-0.4-1.3-0.7-2.1-0.8c-0.8-0.2-1.8-0.3-2.8-0.3h-4.9
			V23.9z"/>
	</g>
	<path fill-rule="evenodd" clip-rule="evenodd" fill="#F15F77" d="M101.1,47.9h-2.6V21.3h2.6v3.1h0.1c0.7-1.2,1.7-2.1,3-2.7
		c1.2-0.6,2.5-0.9,3.8-0.9c1.4,0,2.7,0.2,3.8,0.7c1.1,0.5,2.1,1.1,2.9,2c0.8,0.8,1.4,1.8,1.9,3s0.7,2.4,0.7,3.7
		c0,1.3-0.2,2.6-0.7,3.7c-0.4,1.1-1.1,2.1-1.9,3c-0.8,0.8-1.8,1.5-2.9,2c-1.1,0.5-2.4,0.7-3.8,0.7c-1.3,0-2.5-0.3-3.8-0.9
		c-1.2-0.6-2.2-1.5-3-2.6h-0.1V47.9z M114.5,30.2c0-1-0.2-1.9-0.5-2.8c-0.3-0.9-0.7-1.6-1.3-2.3c-0.6-0.6-1.3-1.2-2.1-1.5
		c-0.8-0.4-1.8-0.6-2.9-0.6c-1,0-1.9,0.2-2.7,0.6c-0.8,0.4-1.6,0.9-2.2,1.5c-0.6,0.6-1.1,1.4-1.4,2.3c-0.3,0.9-0.5,1.8-0.5,2.8
		c0,1,0.2,2,0.5,2.8c0.3,0.9,0.8,1.6,1.4,2.3c0.6,0.6,1.3,1.1,2.2,1.5c0.8,0.4,1.8,0.6,2.7,0.6c1.1,0,2-0.2,2.9-0.6
		c0.8-0.4,1.5-0.9,2.1-1.5c0.6-0.6,1-1.4,1.3-2.3C114.3,32.2,114.5,31.2,114.5,30.2z"/>
	<path fill-rule="evenodd" clip-rule="evenodd" fill="#F15F77" d="M95,14c0,0.5-0.2,1-0.6,1.3c-0.4,0.3-0.8,0.5-1.3,0.5
		c-0.5,0-0.9-0.2-1.3-0.5c-0.4-0.3-0.6-0.8-0.6-1.3s0.2-1,0.6-1.3c0.4-0.3,0.8-0.5,1.3-0.5c0.5,0,0.9,0.2,1.3,0.5
		C94.8,13,95,13.4,95,14z M91.9,39.2h2.6V21.3h-2.6V39.2z"/>
	<rect x="85.2" y="12.1" fill-rule="evenodd" clip-rule="evenodd" fill="#F15F77" width="2.6" height="27.1"/>
	<path fill-rule="evenodd" clip-rule="evenodd" fill="#F15F77" d="M78.7,39.2c-0.1-0.5-0.1-1-0.1-1.6c0-0.6,0-1.1,0-1.5h-0.1
		c-0.5,1-1.3,1.9-2.5,2.5c-1.1,0.6-2.4,1-3.6,1c-2.3,0-4-0.7-5.1-2c-1.1-1.3-1.7-3.1-1.7-5.3v-11h2.6v9.9c0,0.9,0.1,1.8,0.2,2.6
		c0.2,0.8,0.4,1.4,0.8,2c0.4,0.5,0.9,1,1.5,1.3c0.6,0.3,1.4,0.5,2.4,0.5c0.7,0,1.4-0.1,2-0.4c0.6-0.3,1.2-0.7,1.7-1.3
		c0.5-0.6,0.9-1.3,1.2-2.2c0.3-0.9,0.5-1.9,0.5-3.1v-9.2h2.6v13.9c0,0.5,0,1.1,0,1.9c0,0.8,0.1,1.5,0.1,2.1H78.7z"/>
	<polygon fill-rule="evenodd" clip-rule="evenodd" fill="#F15F77" points="61.1,39.2 58.3,39.2 58.3,14.6 49.3,14.6 49.3,12.1 
		70.2,12.1 70.2,14.6 61.1,14.6 	"/>
</g>
</svg>
